<svg width="200" height="192" viewBox="0 0 200 192" fill="none" xmlns="http://www.w3.org/2000/svg">
<path fill-rule="evenodd" clip-rule="evenodd" d="M131 7.5C131 10.0522 125.731 12.3066 117.681 13.6613C132.61 14.8374 143 17.4571 143 20.5C143 23.6266 132.031 26.3064 116.438 27.4325C135.415 28.4666 149 31.2405 149 34.5C149 38.6421 127.062 42 100 42C72.938 42 51 38.6421 51 34.5C51 31.2405 64.5851 28.4666 83.5618 27.4325C67.9693 26.3064 57 23.6266 57 20.5C57 17.4571 67.3897 14.8374 82.3192 13.6613C74.2691 12.3066 69 10.0522 69 7.5C69 3.35786 82.8792 0 100 0C117.121 0 131 3.35786 131 7.5ZM122 49.5C122 51.9523 118.077 54.1296 112.011 55.4981C119.53 54.5574 128.874 54 139 54C163.853 54 184 57.3578 184 61.5C184 65.6422 163.853 69 139 69C122.329 69 107.776 67.4891 100 65.2442C92.2243 67.4891 77.6708 69 61 69C36.1472 69 16 65.6422 16 61.5C16 57.3578 36.1472 54 61 54C67.2727 54 73.2457 54.2139 78.6706 54.6003C74.531 53.2621 72 51.4697 72 49.5C72 45.3579 83.1929 42 97 42C110.807 42 122 45.3579 122 49.5ZM97.0033 57C99.7167 56.9999 102.329 56.8701 104.775 56.6302C102.986 56.9792 101.385 57.3558 100 57.7558C99.0912 57.4934 98.0898 57.2411 97.0033 57ZM116.747 145.462C120.638 144.14 123 142.403 123 140.5C123 136.358 111.807 133 98 133C84.1929 133 73 136.358 73 140.5C73 142.495 75.5955 144.307 79.8286 145.651C62.7232 146.821 50.8035 149.448 50.8035 152.502C50.8035 156.644 72.7415 160.002 99.8035 160.002C126.865 160.002 148.803 156.644 148.803 152.502C148.803 149.271 135.459 146.517 116.747 145.462ZM146 70C125.353 70 107.63 71.8771 100 74.5557C92.3703 71.8771 74.6466 70 54 70C26.3858 70 4 73.3578 4 77.5C4 81.6422 26.3858 85 54 85C74.6466 85 92.3703 83.1229 100 80.4443C107.63 83.1229 125.353 85 146 85C173.614 85 196 81.6422 196 77.5C196 73.3578 173.614 70 146 70ZM100 122.756C107.776 120.511 122.329 119 139 119C163.853 119 184 122.358 184 126.5C184 130.642 163.853 134 139 134C122.329 134 107.776 132.489 100 130.244C92.2243 132.489 77.6708 134 61 134C36.1472 134 16 130.642 16 126.5C16 122.358 36.1472 119 61 119C77.6708 119 92.2243 120.511 100 122.756ZM100 93.5C100 97.6422 77.6142 101 50 101C22.3858 101 0 97.6422 0 93.5C0 89.3578 22.3858 86 50 86C77.6142 86 100 89.3578 100 93.5ZM150 101C122.386 101 100 97.6422 100 93.5C100 89.3578 122.386 86 150 86C177.614 86 200 89.3578 200 93.5C200 97.6422 177.614 101 150 101ZM100 106.556C107.63 103.877 125.353 102 146 102C173.614 102 196 105.358 196 109.5C196 113.642 173.614 117 146 117C125.353 117 107.63 115.123 100 112.444C92.3703 115.123 74.6466 117 54 117C26.3858 117 4 113.642 4 109.5C4 105.358 26.3858 102 54 102C74.6466 102 92.3703 103.877 100 106.556ZM143.055 168.5C143.055 172.642 123.803 176 100.055 176C76.3068 176 57.055 172.642 57.055 168.5C57.055 164.357 76.3068 161 100.055 161C123.803 161 143.055 164.357 143.055 168.5ZM100.252 191.998C117.372 191.998 131.252 188.64 131.252 184.498C131.252 180.356 117.372 176.998 100.252 176.998C83.1307 176.998 69.2516 180.356 69.2516 184.498C69.2516 188.64 83.1307 191.998 100.252 191.998Z" fill="#D9D9D9"/>
</svg>
