<svg width="191" height="193" viewBox="0 0 191 193" fill="none" xmlns="http://www.w3.org/2000/svg">
<path fill-rule="evenodd" clip-rule="evenodd" d="M95 11C106.046 11 115 8.53757 115 5.5C115 2.46243 106.046 0 95 0C83.9543 0 75 2.46243 75 5.5C75 8.53757 83.9543 11 95 11ZM75 24C86.0457 24 95 21.5376 95 18.5C95 21.5376 103.954 24 115 24C126.046 24 135 21.5376 135 18.5C135 15.4624 126.046 13 115 13C103.954 13 95 15.4624 95 18.5C95 15.4624 86.0457 13 75 13C63.9543 13 55 15.4624 55 18.5C55 21.5376 63.9543 24 75 24ZM97 25.5C100.038 25.5 102.5 34.4543 102.5 45.5C102.5 48.5491 102.312 51.4389 101.977 54.0249C145.658 54.338 180 57.5651 180 61.5C180 65.6421 141.944 69 95 69C48.0558 69 10 65.6421 10 61.5C10 57.4458 46.4561 54.143 92.0206 54.0045C91.6866 51.4237 91.5 48.5411 91.5 45.5C91.5 34.4543 93.9624 25.5 97 25.5ZM177 132.5C177 136.554 142.694 139.856 99.8149 139.995C100.141 142.16 100.332 144.504 100.359 146.952C100.482 157.997 97.2235 166.988 93.0817 167.034C91.5777 167.051 90.164 165.886 88.9674 163.866C86.2946 166.057 78.8596 167.692 70.0886 167.79C59.0436 167.912 50.0625 165.549 50.0288 162.512C49.9951 159.475 58.9215 156.913 69.9665 156.79C77.1653 156.71 83.4873 157.686 87.0268 159.217C86.4839 157.395 86.0537 155.325 85.766 153.083C82.2263 154.645 76.0248 155.723 68.9554 155.801C57.9104 155.924 48.9294 153.561 48.8956 150.524C48.8619 147.486 57.7883 144.925 68.8333 144.802C75.6828 144.726 81.7386 145.606 85.3589 147.01C85.3362 144.516 85.4859 142.129 85.779 139.927C46.9088 139.415 17 136.285 17 132.5C17 128.358 52.8172 125 97 125C141.183 125 177 128.358 177 132.5ZM95 86C147.467 86 190 82.6421 190 78.5C190 74.3578 147.467 71 95 71C42.533 71 0 74.3578 0 78.5C0 82.6421 42.533 86 95 86ZM191 96.5C191 100.642 148.467 104 96 104C43.533 104 1 100.642 1 96.5C1 92.3578 43.533 89 96 89C148.467 89 191 92.3578 191 96.5ZM97 122C146.706 122 187 118.642 187 114.5C187 110.358 146.706 107 97 107C47.2944 107 7 110.358 7 114.5C7 118.642 47.2944 122 97 122ZM92 30.5C92 33.5376 83.0457 36 72 36C60.9543 36 52 33.5376 52 30.5C52 27.4624 60.9543 25 72 25C83.0457 25 92 27.4624 92 30.5ZM69 48C80.0457 48 89 45.5376 89 42.5C89 39.4624 80.0457 37 69 37C57.9543 37 49 39.4624 49 42.5C49 45.5376 57.9543 48 69 48ZM143 42.5C143 45.5376 134.046 48 123 48C111.954 48 103 45.5376 103 42.5C103 39.4624 111.954 37 123 37C134.046 37 143 39.4624 143 42.5ZM122 36C133.046 36 142 33.5376 142 30.5C142 27.4624 133.046 25 122 25C110.954 25 102 27.4624 102 30.5C102 33.5376 110.954 36 122 36ZM117.097 168.268C106.052 168.39 97.1254 170.952 97.1591 173.989C97.1254 170.952 88.1443 168.589 77.0993 168.712C66.0543 168.834 57.1279 171.396 57.1616 174.434C57.1953 177.471 66.1764 179.834 77.2214 179.711C88.2664 179.588 97.1929 177.027 97.1591 173.989C97.1929 177.027 106.174 179.39 117.219 179.267C128.264 179.144 137.19 176.583 137.157 173.545C137.123 170.508 128.142 168.145 117.097 168.268ZM97.2424 181.489C86.1974 181.612 77.271 184.173 77.3047 187.211C77.3385 190.248 86.3195 192.611 97.3646 192.488C108.41 192.366 117.336 189.804 117.302 186.766C117.269 183.729 108.287 181.366 97.2424 181.489ZM100.026 161.957C99.992 158.919 108.918 156.358 119.963 156.235C131.008 156.112 139.99 158.475 140.023 161.513C140.057 164.55 131.131 167.112 120.086 167.234C109.041 167.357 100.059 164.994 100.026 161.957ZM122.83 144.202C111.785 144.325 102.859 146.887 102.892 149.924C102.926 152.962 111.907 155.324 122.952 155.202C133.997 155.079 142.924 152.517 142.89 149.48C142.856 146.443 133.875 144.08 122.83 144.202Z" fill="#D9D9D9"/>
</svg>
